<svg width="121" height="33" viewBox="0 0 121 33" fill="none" xmlns="http://www.w3.org/2000/svg">
<path id="Shortly" fill-rule="evenodd" clip-rule="evenodd" d="M34.7614 25.0001H40.2112V13.5761C40.2112 12.8054 40.1431 12.0177 40.0069 11.2131C39.8706 10.4084 39.6038 9.68306 39.2064 9.03705C38.809 8.39105 38.2413 7.85839 37.5033 7.43905C36.7653 7.01972 35.7946 6.81005 34.5911 6.81005C33.2968 6.81005 32.1103 7.09905 31.0317 7.67705C29.9531 8.25506 29.0845 9.07672 28.426 10.1421V0.180054H22.9762V25.0001H28.426V14.7661C28.5849 14.2901 28.812 13.8594 29.1072 13.4741C29.4024 13.0887 29.726 12.7544 30.078 12.4711C30.4299 12.1877 30.7933 11.9724 31.1679 11.8251C31.5426 11.6777 31.8889 11.6041 32.2068 11.6041C33.0016 11.6041 33.626 11.8761 34.0802 12.4201C34.5343 12.9641 34.7614 13.814 34.7614 14.9701V25.0001ZM16.0295 7.42205C16.4383 7.67139 16.6767 7.84139 16.7448 7.93205L19.1972 3.30805C18.6523 2.99072 18.0562 2.67339 17.409 2.35605C16.7619 2.03872 16.0636 1.75539 15.3143 1.50605C14.5649 1.25672 13.7815 1.05272 12.964 0.894054C12.1465 0.735386 11.3177 0.656054 10.4775 0.656054C9.27403 0.656054 8.13298 0.826052 7.05437 1.16605C5.97575 1.50606 5.02772 2.01038 4.21024 2.67905C3.39277 3.34772 2.74561 4.16938 2.26875 5.14405C1.79188 6.11873 1.55346 7.24071 1.55346 8.51005C1.55346 9.41673 1.68402 10.2101 1.94516 10.8901C2.2063 11.5701 2.60368 12.1707 3.13731 12.6921C3.67094 13.2134 4.34649 13.6724 5.16396 14.0691C5.98144 14.4657 6.9465 14.8341 8.05918 15.1741C8.39525 15.2738 8.72133 15.3699 9.03742 15.4624L10.742 15.9575C11.3113 16.1322 11.8135 16.3187 12.2487 16.5171C12.771 16.7551 13.1797 17.0214 13.4749 17.3161C13.7701 17.6107 13.9177 17.9847 13.9177 18.4381C13.9177 19.6394 12.93 20.2401 10.9544 20.2401C10.0234 20.2401 9.10373 20.1154 8.19543 19.8661C7.28712 19.6167 6.46398 19.3334 5.72598 19.0161C4.98798 18.6987 4.3692 18.3814 3.86963 18.0641C3.37006 17.7467 3.07487 17.5314 2.98404 17.4181L0.531616 22.2801C1.23555 22.7561 2.00193 23.1754 2.83076 23.5381C3.65959 23.9007 4.51679 24.2124 5.40239 24.4731C6.28799 24.7337 7.19629 24.9321 8.1273 25.0681C9.05832 25.2041 9.96661 25.2721 10.8522 25.2721C12.0103 25.2721 13.1343 25.1417 14.2243 24.8811C15.3143 24.6204 16.2793 24.2011 17.1195 23.6231C17.9597 23.045 18.6352 22.2857 19.1462 21.3451C19.6571 20.4044 19.9125 19.2541 19.9125 17.8941C19.9125 16.7834 19.7366 15.8314 19.3846 15.0381C19.0326 14.2447 18.5331 13.5704 17.8859 13.0151C17.2387 12.4597 16.4496 11.9951 15.5186 11.6211C14.5876 11.2471 13.5431 10.9014 12.385 10.5841C12.1049 10.5085 11.8362 10.4355 11.5789 10.3649L10.171 9.97205C9.53517 9.79072 9.00722 9.59239 8.58713 9.37705C8.16704 9.16172 7.84914 8.91805 7.63341 8.64605C7.41769 8.37405 7.30983 8.03406 7.30983 7.62605C7.30983 6.28871 8.30895 5.62005 10.3072 5.62005C11.0339 5.62005 11.7605 5.72205 12.4872 5.92605C13.2138 6.13005 13.8837 6.36805 14.4968 6.64005C15.1099 6.91206 15.6208 7.17272 16.0295 7.42205ZM52.5736 25.3401C51.0522 25.3401 49.6954 25.0907 48.5033 24.5921C47.3111 24.0934 46.3063 23.4191 45.4888 22.5691C44.6714 21.719 44.0526 20.7331 43.6325 19.6111C43.2124 18.489 43.0024 17.3161 43.0024 16.0921C43.0024 14.868 43.2124 13.6951 43.6325 12.5731C44.0526 11.451 44.6714 10.4651 45.4888 9.61505C46.3063 8.76505 47.3111 8.08506 48.5033 7.57505C49.6954 7.06505 51.0522 6.81005 52.5736 6.81005C54.095 6.81005 55.4461 7.06505 56.6269 7.57505C57.8077 8.08506 58.8068 8.76505 59.6243 9.61505C60.4418 10.4651 61.0662 11.451 61.4977 12.5731C61.9291 13.6951 62.1449 14.868 62.1449 16.0921C62.1449 17.3161 61.9348 18.489 61.5147 19.6111C61.0946 20.7331 60.4758 21.719 59.6584 22.5691C58.8409 23.4191 57.8361 24.0934 56.6439 24.5921C55.4518 25.0907 54.095 25.3401 52.5736 25.3401ZM49.7125 19.4751C48.9631 18.625 48.5884 17.4974 48.5884 16.0921C48.5884 15.4121 48.6906 14.7831 48.895 14.2051C49.0993 13.6271 49.3775 13.1341 49.7295 12.7261C50.0815 12.3181 50.5015 12.0007 50.9898 11.7741C51.478 11.5474 52.0059 11.4341 52.5736 11.4341C53.709 11.4341 54.6513 11.859 55.4007 12.7091C56.1501 13.5591 56.5247 14.6867 56.5247 16.0921C56.5247 16.7721 56.4225 17.4011 56.2182 17.9791C56.0138 18.5571 55.7356 19.0501 55.3837 19.4581C55.0317 19.8661 54.6173 20.1834 54.1404 20.4101C53.6636 20.6367 53.1413 20.7501 52.5736 20.7501C51.4155 20.7501 50.4618 20.3251 49.7125 19.4751ZM76.4147 11.8081C75.0976 11.8307 73.9055 12.0461 72.8382 12.4541C71.771 12.8621 70.9989 13.474 70.5221 14.2901V25.0001H65.0722V7.15005H70.0793V10.7541C70.6924 9.55271 71.4814 8.61206 72.4465 7.93205C73.4116 7.25205 74.4391 6.90072 75.5291 6.87805H76.0741C76.1876 6.87805 76.3011 6.88939 76.4147 6.91205V11.8081ZM87.9426 24.9321C88.9076 24.6601 89.7648 24.3654 90.5142 24.0481L89.4583 19.7301C89.1404 19.8887 88.7657 20.0361 88.3343 20.1721C87.9028 20.3081 87.4827 20.3761 87.074 20.3761C86.6198 20.3761 86.2452 20.2457 85.95 19.9851C85.6548 19.7244 85.5072 19.2994 85.5072 18.7101V11.2641H89.1517V7.15005H85.5072V1.47205H80.0574V7.15005H77.7752V11.2641H80.0574V20.5801C80.0574 21.4414 80.1879 22.1781 80.4491 22.7901C80.7102 23.4021 81.0678 23.8951 81.522 24.2691C81.9761 24.6431 82.5041 24.9151 83.1058 25.0851C83.7076 25.2551 84.3491 25.3401 85.0303 25.3401C86.0067 25.3401 86.9775 25.2041 87.9426 24.9321ZM92.7944 0.180054H98.2442V18.6421C98.2442 20.0021 98.8233 20.6821 99.9814 20.6821C100.254 20.6821 100.555 20.6424 100.884 20.5631C101.213 20.4837 101.514 20.3647 101.787 20.2061L102.502 24.2861C101.821 24.6034 101.037 24.8527 100.152 25.0341C99.2661 25.2154 98.4372 25.3061 97.6652 25.3061C96.0984 25.3061 94.8949 24.8981 94.0547 24.0821C93.2145 23.2661 92.7944 22.0874 92.7944 20.5461V0.180054ZM105.549 28.0261C105.151 27.9581 104.725 27.8447 104.271 27.6861V32.3441C104.748 32.5254 105.219 32.6557 105.685 32.7351C106.15 32.8144 106.61 32.8541 107.064 32.8541C108.745 32.8541 110.198 32.3951 111.424 31.4771C112.65 30.559 113.502 29.3634 113.979 27.8901L120.791 7.15005H115.682L112.105 20.3421L107.95 7.15005H102.33L109.142 25.0001C108.847 26.1787 108.518 26.9947 108.154 27.4481C107.791 27.9014 107.28 28.1281 106.621 28.1281C106.304 28.1281 105.946 28.0941 105.549 28.0261Z" fill="#34313D"/>
</svg>
